<?xml version="1.0" encoding="UTF-8"?><svg id="Ebene_1" xmlns="http://www.w3.org/2000/svg" viewBox="0 0 42.12 50"><defs><style>.cls-1{fill:#da421e;}</style></defs><g id="Pikt"><path class="cls-1" d="M0,12.52v24.96H42.12V12.52H0Zm20.76,14.85c0,4.9-2.75,6.87-7.46,6.87s-7.46-1.97-7.46-6.87V15.72h3.64v10.54c0,3.14,1,5.17,3.81,5.17s3.76-2.03,3.76-5.17V15.72h3.7v11.66Zm16.5,6.59h-12.21v-3.03c1.5-1.36,7.68-6.57,7.68-10.12,0-1.72-.95-2.56-2.73-2.56-1.53,0-3.03,.67-4.2,1.5l-.33-3.01c1.67-.97,3.62-1.34,5.45-1.34,3.67,0,5.76,1.95,5.76,5.12,0,4.03-4.26,7.65-7.23,10.46h7.82v2.97Z"/></g></svg>