<?xml version="1.0" encoding="UTF-8"?><svg id="Ebene_1" xmlns="http://www.w3.org/2000/svg" viewBox="0 0 42.12 50"><defs><style>.cls-1{fill:#16683d;}</style></defs><g id="Pikt"><path class="cls-1" d="M0,12.52v24.96H42.12V12.52H0Zm21.42,14.85c0,4.9-2.78,6.87-7.48,6.87s-7.46-1.97-7.46-6.87V15.72h3.67v10.54c0,3.14,.97,5.17,3.79,5.17s3.79-2.03,3.79-5.17V15.72h3.7v11.66Zm7.84,6.87c-1.61,0-3.42-.19-4.75-.56l.19-3.14c1.25,.53,2.59,.86,4.06,.86s3.84-.72,3.84-2.62c0-2.09-1.7-2.86-4.06-2.86h-1.81v-2.89h1.72c2.45,0,4.03-.81,4.03-2.42,0-1.81-1.47-2.36-3.17-2.36-1.36,0-2.81,.28-4.06,.95l-.25-2.87c1.47-.58,3.23-.92,5.15-.92,2.25,0,6.01,.75,6.01,4.62,0,2.53-1.56,3.67-3.39,4.42v.06c2.31,.25,3.45,2.14,3.45,4.31,0,4.37-3.98,5.42-6.96,5.42h0Z"/></g></svg>