<?xml version="1.0" encoding="UTF-8"?><svg id="Ebene_1" xmlns="http://www.w3.org/2000/svg" viewBox="0 0 42.12 50"><defs><style>.cls-1{fill:#7e5330;}</style></defs><g id="Pikt"><path class="cls-1" d="M0,12.52v24.96H42.12V12.52H0Zm20.76,14.85c0,4.9-2.75,6.87-7.46,6.87s-7.46-1.97-7.46-6.87V15.72h3.64v10.54c0,3.14,1,5.17,3.81,5.17s3.76-2.03,3.76-5.17V15.72h3.7v11.66Zm9.38,6.87c-1.43,0-2.86-.16-4.26-.47l.03-3.31c.89,.42,2.2,.95,3.84,.95,1.78,0,3.84-.86,3.84-3.23s-2.09-3.17-4.17-3.17c-1.12,0-2.23,.17-3.28,.53l.19-9.82h10.49v2.73h-7.01l-.06,3.89c.53-.14,1.07-.2,1.61-.19,2.61,0,5.9,1.22,5.9,5.95,0,3.4-2.39,6.15-7.12,6.15h0Z"/></g></svg>