<?xml version="1.0" encoding="UTF-8"?><svg id="Ebene_1" xmlns="http://www.w3.org/2000/svg" viewBox="0 0 42.12 50"><defs><style>.cls-1{fill:#8c6dab;}</style></defs><g id="Pikt"><path class="cls-1" d="M0,12.52v24.96H42.12V12.52H0Zm20.76,14.85c0,4.9-2.75,6.87-7.46,6.87s-7.46-1.97-7.46-6.87V15.72h3.64v10.54c0,3.14,1,5.17,3.81,5.17s3.76-2.03,3.76-5.17V15.72h3.7v11.66Zm10.44,6.96c-4.81,0-6.09-3.73-6.09-8.54s1.73-10.32,7.65-10.32c1.36,0,2.59,.17,3.81,.62l-.42,2.97c-1-.47-2-.75-3.23-.75-3.17,0-4.2,2.98-4.31,5.68l.03,.08c.89-1.34,2.03-1.89,3.59-1.89,3.45,0,5.34,2.14,5.34,5.59,0,3.84-2.11,6.56-6.37,6.56Z"/><path class="cls-1" d="M31.36,24.9c-1.78,0-2.48,1.64-2.48,3.17,0,1.98,.72,3.53,2.56,3.53,1.7,0,2.39-1.67,2.39-3.28,0-1.78-.7-3.42-2.48-3.42Z"/></g></svg>