<?xml version="1.0" encoding="UTF-8"?><svg id="Ebene_1" xmlns="http://www.w3.org/2000/svg" viewBox="0 0 42.12 50"><defs><style>.cls-1{fill:#224f86;}</style></defs><g id="Pikt"><path class="cls-1" d="M31.58,23.06c1.11-.5,2.02-1.5,2.02-2.61,0-1.36-.83-2.31-2.36-2.31-1.17,0-2.48,.72-2.48,2.2,0,1.55,1.56,2.25,2.82,2.72Z"/><path class="cls-1" d="M30.91,25.96c-1.36,.7-2.34,1.53-2.34,3.06,0,1.67,1.2,2.59,2.81,2.59,1.39,0,2.56-.92,2.56-2.42,0-1.84-1.53-2.7-3.03-3.23Z"/><path class="cls-1" d="M0,12.52v24.96H42.12V12.52H0Zm20.76,14.85c0,4.9-2.75,6.87-7.46,6.87s-7.46-1.97-7.46-6.87V15.72h3.64v10.54c0,3.14,1,5.17,3.81,5.17s3.76-2.03,3.76-5.17V15.72h3.7v11.66Zm10.63,6.96c-3.76,0-6.51-1.64-6.51-5.04,0-2.14,1.17-3.7,3.37-4.75v-.03c-1.81-.83-3.03-2.36-3.03-4.28,0-2.5,2.28-4.75,6.15-4.75,3.56,0,5.84,1.7,5.84,4.37,0,1.97-1.34,3.73-3.12,4.34,2.42,1.14,3.53,2.75,3.53,4.84,0,3.44-2.67,5.31-6.23,5.31Z"/></g></svg>