<?xml version="1.0" encoding="UTF-8"?><svg id="Ebene_1" xmlns="http://www.w3.org/2000/svg" viewBox="0 0 42.12 50"><defs><style>.cls-1{fill:#f3791d;}</style></defs><g id="Pikt"><path class="cls-1" d="M31.22,18.09c-1.7,0-2.48,1.67-2.48,3.31,0,1.75,.78,3.37,2.59,3.37s2.45-1.61,2.45-3.42c0-1.7-.75-3.25-2.56-3.25Z"/><path class="cls-1" d="M0,12.52v24.96H42.12V12.52H0Zm20.76,14.85c0,4.9-2.75,6.87-7.46,6.87s-7.46-1.97-7.46-6.87V15.72h3.64v10.54c0,3.14,1,5.17,3.81,5.17s3.76-2.03,3.76-5.17V15.72h3.7v11.66Zm9.16,6.96c-1.36,0-2.59-.19-3.84-.72l.47-2.92c1,.49,2.09,.74,3.2,.75,3.2,0,4.23-3,4.31-5.65l-.06-.03c-.9,1.2-2.01,1.75-3.57,1.75-3.42,0-5.31-2.2-5.31-5.56,0-3.92,1.92-6.54,6.09-6.54,5.06,0,6.2,4.17,6.2,8.46,0,4.95-1.61,10.46-7.51,10.46h0Z"/></g></svg>